<svg xmlns="http://www.w3.org/2000/svg" viewBox="0 0 640 452" role="img" aria-label="Three horizontal temperature bands over a seasonal outdoor curve, with a small section of a glasshouse and its hidden chimney below.">
<line x1="58" y1="196" x2="548" y2="196" stroke="var(--line,#32352F)" stroke-width="0.75"/>
<text x="51" y="199" font-family="&#39;Space Mono&#39;,monospace" font-size="9" fill="var(--mut,#8A8880)" letter-spacing="0.08em" text-anchor="end">0</text>
<line x1="58" y1="152.67" x2="548" y2="152.67" stroke="var(--line,#32352F)" stroke-width="0.75"/>
<text x="51" y="155.67" font-family="&#39;Space Mono&#39;,monospace" font-size="9" fill="var(--mut,#8A8880)" letter-spacing="0.08em" text-anchor="end">10</text>
<line x1="58" y1="109.33" x2="548" y2="109.33" stroke="var(--line,#32352F)" stroke-width="0.75"/>
<text x="51" y="112.33" font-family="&#39;Space Mono&#39;,monospace" font-size="9" fill="var(--mut,#8A8880)" letter-spacing="0.08em" text-anchor="end">20</text>
<line x1="58" y1="66" x2="548" y2="66" stroke="var(--line,#32352F)" stroke-width="0.75"/>
<text x="51" y="69" font-family="&#39;Space Mono&#39;,monospace" font-size="9" fill="var(--mut,#8A8880)" letter-spacing="0.08em" text-anchor="end">30</text>
<text x="51" y="30" font-family="&#39;Space Mono&#39;,monospace" font-size="9" fill="var(--mut,#8A8880)" letter-spacing="0.08em" text-anchor="end">DEG C</text>
<line x1="58" y1="40" x2="58" y2="196" stroke="var(--mut,#8A8880)" stroke-width="0.75"/>
<line x1="58" y1="196" x2="548" y2="196" stroke="var(--mut,#8A8880)" stroke-width="0.75"/>
<text x="78.42" y="211" font-family="&#39;Space Mono&#39;,monospace" font-size="9" fill="var(--mut,#8A8880)" letter-spacing="0.08em" text-anchor="middle">J</text>
<text x="119.25" y="211" font-family="&#39;Space Mono&#39;,monospace" font-size="9" fill="var(--mut,#8A8880)" letter-spacing="0.08em" text-anchor="middle">F</text>
<line x1="98.83" y1="196" x2="98.83" y2="199" stroke="var(--mut,#8A8880)" stroke-width="0.75"/>
<text x="160.08" y="211" font-family="&#39;Space Mono&#39;,monospace" font-size="9" fill="var(--mut,#8A8880)" letter-spacing="0.08em" text-anchor="middle">M</text>
<line x1="139.67" y1="196" x2="139.67" y2="199" stroke="var(--mut,#8A8880)" stroke-width="0.75"/>
<text x="200.92" y="211" font-family="&#39;Space Mono&#39;,monospace" font-size="9" fill="var(--mut,#8A8880)" letter-spacing="0.08em" text-anchor="middle">A</text>
<line x1="180.5" y1="196" x2="180.5" y2="199" stroke="var(--mut,#8A8880)" stroke-width="0.75"/>
<text x="241.75" y="211" font-family="&#39;Space Mono&#39;,monospace" font-size="9" fill="var(--mut,#8A8880)" letter-spacing="0.08em" text-anchor="middle">M</text>
<line x1="221.33" y1="196" x2="221.33" y2="199" stroke="var(--mut,#8A8880)" stroke-width="0.75"/>
<text x="282.58" y="211" font-family="&#39;Space Mono&#39;,monospace" font-size="9" fill="var(--mut,#8A8880)" letter-spacing="0.08em" text-anchor="middle">J</text>
<line x1="262.17" y1="196" x2="262.17" y2="199" stroke="var(--mut,#8A8880)" stroke-width="0.75"/>
<text x="323.42" y="211" font-family="&#39;Space Mono&#39;,monospace" font-size="9" fill="var(--mut,#8A8880)" letter-spacing="0.08em" text-anchor="middle">J</text>
<line x1="303" y1="196" x2="303" y2="199" stroke="var(--mut,#8A8880)" stroke-width="0.75"/>
<text x="364.25" y="211" font-family="&#39;Space Mono&#39;,monospace" font-size="9" fill="var(--mut,#8A8880)" letter-spacing="0.08em" text-anchor="middle">A</text>
<line x1="343.83" y1="196" x2="343.83" y2="199" stroke="var(--mut,#8A8880)" stroke-width="0.75"/>
<text x="405.08" y="211" font-family="&#39;Space Mono&#39;,monospace" font-size="9" fill="var(--mut,#8A8880)" letter-spacing="0.08em" text-anchor="middle">S</text>
<line x1="384.67" y1="196" x2="384.67" y2="199" stroke="var(--mut,#8A8880)" stroke-width="0.75"/>
<text x="445.92" y="211" font-family="&#39;Space Mono&#39;,monospace" font-size="9" fill="var(--mut,#8A8880)" letter-spacing="0.08em" text-anchor="middle">O</text>
<line x1="425.5" y1="196" x2="425.5" y2="199" stroke="var(--mut,#8A8880)" stroke-width="0.75"/>
<text x="486.75" y="211" font-family="&#39;Space Mono&#39;,monospace" font-size="9" fill="var(--mut,#8A8880)" letter-spacing="0.08em" text-anchor="middle">N</text>
<line x1="466.33" y1="196" x2="466.33" y2="199" stroke="var(--mut,#8A8880)" stroke-width="0.75"/>
<text x="527.58" y="211" font-family="&#39;Space Mono&#39;,monospace" font-size="9" fill="var(--mut,#8A8880)" letter-spacing="0.08em" text-anchor="middle">D</text>
<line x1="507.17" y1="196" x2="507.17" y2="199" stroke="var(--mut,#8A8880)" stroke-width="0.75"/>
<rect x="58" y="57.33" width="490" height="26" fill="var(--surface,#1F211E)" stroke="var(--dim,#B8B5AC)" stroke-width="1.5"/><text x="64" y="52.33" font-family="&#39;Space Mono&#39;,monospace" font-size="9" fill="var(--dim,#B8B5AC)" letter-spacing="0.08em">LILY HOUSE, 1850</text><text x="556" y="73.33" font-family="&#39;Space Mono&#39;,monospace" font-size="10" fill="var(--dim,#B8B5AC)" letter-spacing="0.08em">26–32</text>
<rect x="58" y="74.67" width="490" height="43.33" fill="var(--surface,#1F211E)" stroke="var(--accent,#6A9CC4)" stroke-width="1.5"/><text x="64" y="86.67" font-family="&#39;Space Mono&#39;,monospace" font-size="9" fill="var(--accent,#6A9CC4)" letter-spacing="0.08em">PALM HOUSE</text><text x="556" y="99.33" font-family="&#39;Space Mono&#39;,monospace" font-size="10" fill="var(--accent,#6A9CC4)" letter-spacing="0.08em">18–28</text>
<line x1="58" y1="74.67" x2="548" y2="74.67" stroke="var(--accent,#6A9CC4)" stroke-width="1.5" stroke-dasharray="3 3"/>
<text x="64" y="102" font-family="&#39;Space Mono&#39;,monospace" font-size="8" fill="var(--accent,#6A9CC4)" letter-spacing="0.08em">VENTS OPEN AT 28</text>
<text x="64" y="113" font-family="&#39;Space Mono&#39;,monospace" font-size="8" fill="var(--accent,#6A9CC4)" letter-spacing="0.08em">HUMIDITY HELD ABOVE 75 PER CENT BY MISTING</text>
<rect x="58" y="144" width="490" height="8.67" fill="var(--surface,#1F211E)" stroke="var(--ink,#ECEAE3)" stroke-width="1.5"/>
<text x="64" y="164.67" font-family="&#39;Space Mono&#39;,monospace" font-size="9" fill="var(--ink,#ECEAE3)" letter-spacing="0.08em">TEMPERATE HOUSE · MINIMUM 10, VENTS AT 12</text>
<text x="556" y="151.33" font-family="&#39;Space Mono&#39;,monospace" font-size="10" fill="var(--ink,#ECEAE3)" letter-spacing="0.08em">10–12</text>
<path d="M58 172.95 L62.08 173.37 L66.17 173.72 L70.25 173.99 L74.33 174.18 L78.42 174.29 L82.5 174.33 L86.58 174.29 L90.67 174.18 L94.75 173.99 L98.83 173.72 L102.92 173.37 L107 172.95 L111.08 172.46 L115.17 171.9 L119.25 171.26 L123.33 170.56 L127.42 169.79 L131.5 168.95 L135.58 168.06 L139.67 167.1 L143.75 166.08 L147.83 165.01 L151.92 163.89 L156 162.72 L160.08 161.51 L164.17 160.25 L168.25 158.95 L172.33 157.62 L176.42 156.26 L180.5 154.87 L184.58 153.46 L188.67 152.02 L192.75 150.57 L196.83 149.11 L200.92 147.64 L205 146.17 L209.08 144.69 L213.17 143.22 L217.25 141.76 L221.33 140.31 L225.42 138.88 L229.5 137.46 L233.58 136.07 L237.67 134.71 L241.75 133.38 L245.83 132.08 L249.92 130.83 L254 129.61 L258.08 128.44 L262.17 127.32 L266.25 126.25 L270.33 125.23 L274.42 124.28 L278.5 123.38 L282.58 122.54 L286.67 121.77 L290.75 121.07 L294.83 120.44 L298.92 119.87 L303 119.38 L307.08 118.96 L311.17 118.62 L315.25 118.35 L319.33 118.15 L323.42 118.04 L327.5 118 L331.58 118.04 L335.67 118.15 L339.75 118.35 L343.83 118.62 L347.92 118.96 L352 119.38 L356.08 119.87 L360.17 120.44 L364.25 121.07 L368.33 121.77 L372.42 122.54 L376.5 123.38 L380.58 124.28 L384.67 125.23 L388.75 126.25 L392.83 127.32 L396.92 128.44 L401 129.61 L405.08 130.83 L409.17 132.08 L413.25 133.38 L417.33 134.71 L421.42 136.07 L425.5 137.46 L429.58 138.88 L433.67 140.31 L437.75 141.76 L441.83 143.22 L445.92 144.69 L450 146.17 L454.08 147.64 L458.17 149.11 L462.25 150.57 L466.33 152.02 L470.42 153.46 L474.5 154.87 L478.58 156.26 L482.67 157.62 L486.75 158.95 L490.83 160.25 L494.92 161.51 L499 162.72 L503.08 163.89 L507.17 165.01 L511.25 166.08 L515.33 167.1 L519.42 168.06 L523.5 168.95 L527.58 169.79 L531.67 170.56 L535.75 171.26 L539.83 171.9 L543.92 172.46 L548 172.95" fill="none" stroke="var(--mut,#8A8880)" stroke-width="1.5" stroke-dasharray="4 3"/>
<text x="303" y="183" font-family="&#39;Space Mono&#39;,monospace" font-size="8" fill="var(--mut,#8A8880)" letter-spacing="0.08em" text-anchor="middle">LONDON'S SEASONAL SHAPE — SCHEMATIC. NO OUTDOOR DATASET IS CITED IN THIS CHAPTER.</text>
<text x="58" y="228" font-family="&#39;Space Mono&#39;,monospace" font-size="8.5" fill="var(--ink,#ECEAE3)" letter-spacing="0.08em">TWO HOUSES A FEW HUNDRED METRES APART, HOLDING TWO CLIMATES, ON ONE SITE AND ONE LATITUDE.</text>
<rect x="58" y="240" width="154" height="30" fill="none" stroke="var(--mut,#8A8880)" stroke-width="0.75" stroke-dasharray="2 3" opacity="0.85"/><text x="135" y="258" font-family="&#39;Space Mono&#39;,monospace" font-size="8.5" fill="var(--mut,#8A8880)" letter-spacing="0.08em" text-anchor="middle">STRATIFICATION</text>
<rect x="228" y="240" width="154" height="30" fill="none" stroke="var(--mut,#8A8880)" stroke-width="0.75" stroke-dasharray="2 3" opacity="0.85"/><text x="305" y="258" font-family="&#39;Space Mono&#39;,monospace" font-size="8.5" fill="var(--mut,#8A8880)" letter-spacing="0.08em" text-anchor="middle">LIGHT</text>
<rect x="398" y="240" width="154" height="30" fill="none" stroke="var(--mut,#8A8880)" stroke-width="0.75" stroke-dasharray="2 3" opacity="0.85"/><text x="475" y="258" font-family="&#39;Space Mono&#39;,monospace" font-size="8.5" fill="var(--mut,#8A8880)" letter-spacing="0.08em" text-anchor="middle">SCENT</text>
<text x="58" y="286" font-family="&#39;Space Mono&#39;,monospace" font-size="8" fill="var(--mut,#8A8880)" letter-spacing="0.08em">MEASURED IN NONE OF THE THREE HOUSES.</text>
<line x1="58" y1="316" x2="612" y2="316" stroke="var(--line,#32352F)" stroke-width="0.75"/>
<text x="58" y="330" font-family="&#39;Space Mono&#39;,monospace" font-size="9" fill="var(--mut,#8A8880)" letter-spacing="0.08em">WHAT IS NOT SEEN: THE PALM HOUSE PLANT</text>
<path d="M 58 410 Q 142 332 226 410" fill="none" stroke="var(--ink,#ECEAE3)" stroke-width="1.5"/>
<line x1="54" y1="410" x2="360" y2="410" stroke="var(--mut,#8A8880)" stroke-width="0.75"/>
<rect x="250" y="412" width="44" height="22" fill="var(--surface,#1F211E)" stroke="var(--ink,#ECEAE3)" stroke-width="1.5"/>
<text x="250" y="446" font-family="&#39;Space Mono&#39;,monospace" font-size="8" fill="var(--ink,#ECEAE3)" letter-spacing="0.08em">BOILER</text>
<line x1="148" y1="422" x2="250" y2="422" stroke="var(--ink,#ECEAE3)" stroke-width="1.5"/>
<text x="152" y="446" font-family="&#39;Space Mono&#39;,monospace" font-size="8" fill="var(--ink,#ECEAE3)" letter-spacing="0.08em">TUNNEL</text>
<rect x="348" y="328" width="12" height="82" fill="var(--surface,#1F211E)" stroke="var(--ink,#ECEAE3)" stroke-width="1.5"/>
<text x="370" y="348" font-family="&#39;Space Mono&#39;,monospace" font-size="8.5" fill="var(--ink,#ECEAE3)" letter-spacing="0.08em">CAMPANILE — THE CHIMNEY MOVED OFF THE</text>
<text x="370" y="360" font-family="&#39;Space Mono&#39;,monospace" font-size="8.5" fill="var(--ink,#ECEAE3)" letter-spacing="0.08em">BUILDING, SO THE GLASSHOUSE COULD APPEAR</text>
<text x="370" y="372" font-family="&#39;Space Mono&#39;,monospace" font-size="8.5" fill="var(--ink,#ECEAE3)" letter-spacing="0.08em">TO HAVE NO PLANT AT ALL.</text>
</svg>
