<svg xmlns="http://www.w3.org/2000/svg" viewBox="0 0 640 468" role="img" aria-label="A house plan shaded from light at the street to dark at the innermost room, with a courtyard in the middle.">
<rect x="110.0" y="72.0" width="300.0" height="44.0" fill="none" stroke="var(--ink,#ECEAE3)" stroke-width="1.5"/>
<rect x="424.0" y="83.0" width="10.0" height="10.0" fill="var(--ink,#ECEAE3)" stroke="var(--mut,#8A8880)" stroke-width="0.75"/>
<rect x="437.0" y="83.0" width="10.0" height="10.0" fill="none" stroke="var(--mut,#8A8880)" stroke-width="0.75"/>
<rect x="450.0" y="83.0" width="10.0" height="10.0" fill="none" stroke="var(--mut,#8A8880)" stroke-width="0.75"/>
<rect x="463.0" y="83.0" width="10.0" height="10.0" fill="none" stroke="var(--mut,#8A8880)" stroke-width="0.75"/>
<rect x="476.0" y="83.0" width="10.0" height="10.0" fill="none" stroke="var(--mut,#8A8880)" stroke-width="0.75"/>
<text x="498.0" y="92.0" font-family="'Space Mono',monospace" font-size="9" fill="var(--ink,#ECEAE3)" letter-spacing="0.08em">DAKA</text>
<text x="498.0" y="104.0" font-family="'Space Mono',monospace" font-size="9" fill="var(--mut,#8A8880)" letter-spacing="0.08em">ENTRANCE PORCH</text>
<rect x="110.0" y="116.0" width="300.0" height="86.0" fill="none" stroke="var(--ink,#ECEAE3)" stroke-width="1.5"/>
<rect x="424.0" y="148.0" width="10.0" height="10.0" fill="var(--ink,#ECEAE3)" stroke="var(--mut,#8A8880)" stroke-width="0.75"/>
<rect x="437.0" y="148.0" width="10.0" height="10.0" fill="var(--ink,#ECEAE3)" stroke="var(--mut,#8A8880)" stroke-width="0.75"/>
<rect x="450.0" y="148.0" width="10.0" height="10.0" fill="none" stroke="var(--mut,#8A8880)" stroke-width="0.75"/>
<rect x="463.0" y="148.0" width="10.0" height="10.0" fill="none" stroke="var(--mut,#8A8880)" stroke-width="0.75"/>
<rect x="476.0" y="148.0" width="10.0" height="10.0" fill="none" stroke="var(--mut,#8A8880)" stroke-width="0.75"/>
<text x="498.0" y="157.0" font-family="'Space Mono',monospace" font-size="9" fill="var(--ink,#ECEAE3)" letter-spacing="0.08em">KIWANDA</text>
<text x="498.0" y="169.0" font-family="'Space Mono',monospace" font-size="9" fill="var(--mut,#8A8880)" letter-spacing="0.08em">THE COURT</text>
<rect x="110.0" y="202.0" width="300.0" height="40.0" fill="none" stroke="var(--ink,#ECEAE3)" stroke-width="1.5"/>
<rect x="424.0" y="211.0" width="10.0" height="10.0" fill="var(--ink,#ECEAE3)" stroke="var(--mut,#8A8880)" stroke-width="0.75"/>
<rect x="437.0" y="211.0" width="10.0" height="10.0" fill="var(--ink,#ECEAE3)" stroke="var(--mut,#8A8880)" stroke-width="0.75"/>
<rect x="450.0" y="211.0" width="10.0" height="10.0" fill="var(--ink,#ECEAE3)" stroke="var(--mut,#8A8880)" stroke-width="0.75"/>
<rect x="463.0" y="211.0" width="10.0" height="10.0" fill="none" stroke="var(--mut,#8A8880)" stroke-width="0.75"/>
<rect x="476.0" y="211.0" width="10.0" height="10.0" fill="none" stroke="var(--mut,#8A8880)" stroke-width="0.75"/>
<text x="498.0" y="220.0" font-family="'Space Mono',monospace" font-size="9" fill="var(--ink,#ECEAE3)" letter-spacing="0.08em">MSANA WA TINI</text>
<text x="498.0" y="232.0" font-family="'Space Mono',monospace" font-size="9" fill="var(--mut,#8A8880)" letter-spacing="0.08em">OUTER GALLERY</text>
<rect x="110.0" y="242.0" width="300.0" height="40.0" fill="none" stroke="var(--ink,#ECEAE3)" stroke-width="1.5"/>
<rect x="424.0" y="251.0" width="10.0" height="10.0" fill="var(--ink,#ECEAE3)" stroke="var(--mut,#8A8880)" stroke-width="0.75"/>
<rect x="437.0" y="251.0" width="10.0" height="10.0" fill="var(--ink,#ECEAE3)" stroke="var(--mut,#8A8880)" stroke-width="0.75"/>
<rect x="450.0" y="251.0" width="10.0" height="10.0" fill="var(--ink,#ECEAE3)" stroke="var(--mut,#8A8880)" stroke-width="0.75"/>
<rect x="463.0" y="251.0" width="10.0" height="10.0" fill="var(--ink,#ECEAE3)" stroke="var(--mut,#8A8880)" stroke-width="0.75"/>
<rect x="476.0" y="251.0" width="10.0" height="10.0" fill="none" stroke="var(--mut,#8A8880)" stroke-width="0.75"/>
<text x="498.0" y="260.0" font-family="'Space Mono',monospace" font-size="9" fill="var(--ink,#ECEAE3)" letter-spacing="0.08em">MSANA WA YUU</text>
<text x="498.0" y="272.0" font-family="'Space Mono',monospace" font-size="9" fill="var(--mut,#8A8880)" letter-spacing="0.08em">INNER GALLERY</text>
<rect x="110.0" y="282.0" width="300.0" height="52.0" fill="none" stroke="var(--ink,#ECEAE3)" stroke-width="1.5"/>
<rect x="424.0" y="297.0" width="10.0" height="10.0" fill="var(--ink,#ECEAE3)" stroke="var(--mut,#8A8880)" stroke-width="0.75"/>
<rect x="437.0" y="297.0" width="10.0" height="10.0" fill="var(--ink,#ECEAE3)" stroke="var(--mut,#8A8880)" stroke-width="0.75"/>
<rect x="450.0" y="297.0" width="10.0" height="10.0" fill="var(--ink,#ECEAE3)" stroke="var(--mut,#8A8880)" stroke-width="0.75"/>
<rect x="463.0" y="297.0" width="10.0" height="10.0" fill="var(--ink,#ECEAE3)" stroke="var(--mut,#8A8880)" stroke-width="0.75"/>
<rect x="476.0" y="297.0" width="10.0" height="10.0" fill="var(--ink,#ECEAE3)" stroke="var(--mut,#8A8880)" stroke-width="0.75"/>
<text x="498.0" y="306.0" font-family="'Space Mono',monospace" font-size="9" fill="var(--ink,#ECEAE3)" letter-spacing="0.08em">NDANI</text>
<text x="498.0" y="318.0" font-family="'Space Mono',monospace" font-size="9" fill="var(--mut,#8A8880)" letter-spacing="0.08em">THE INNERMOST ROOM</text>
<line x1="110.0" y1="66.0" x2="410.0" y2="66.0" stroke="var(--mut,#8A8880)" stroke-width="0.75"/>
<text x="100.0" y="62.0" font-family="'Space Mono',monospace" font-size="9" fill="var(--mut,#8A8880)" letter-spacing="0.08em" text-anchor="end">STREET</text>
<rect x="122.0" y="80.0" width="16.0" height="28.0" fill="var(--surface,#1F211E)" stroke="var(--mut,#8A8880)" stroke-width="0.75"/>
<rect x="382.0" y="80.0" width="16.0" height="28.0" fill="var(--surface,#1F211E)" stroke="var(--mut,#8A8880)" stroke-width="0.75"/>
<text x="146.0" y="98.0" font-family="'Space Mono',monospace" font-size="9" fill="var(--mut,#8A8880)" letter-spacing="0.08em">BARAZA BENCHES</text>
<circle cx="154.0" cy="146.0" r="9.0" fill="var(--surface,#1F211E)" stroke="var(--accent,#6A9CC4)" stroke-width="1.5"/>
<text x="168.0" y="149.0" font-family="'Space Mono',monospace" font-size="9" fill="var(--accent,#6A9CC4)" letter-spacing="0.08em">WELL</text>
<path d="M324,186 L346,168 L368,186" fill="none" stroke="var(--mut,#8A8880)" stroke-width="0.75"/>
<text x="256.0" y="152.0" font-family="'Space Mono',monospace" font-size="9" fill="var(--mut,#8A8880)" letter-spacing="0.08em">COOKING, UNDER THATCH</text>
<rect x="126.0" y="306.0" width="20.0" height="14.0" fill="var(--surface,#1F211E)" stroke="var(--accent,#6A9CC4)" stroke-width="1.5"/>
<rect x="158.0" y="306.0" width="20.0" height="14.0" fill="var(--surface,#1F211E)" stroke="var(--accent,#6A9CC4)" stroke-width="1.5"/>
<rect x="190.0" y="306.0" width="20.0" height="14.0" fill="var(--surface,#1F211E)" stroke="var(--accent,#6A9CC4)" stroke-width="1.5"/>
<rect x="222.0" y="306.0" width="20.0" height="14.0" fill="var(--surface,#1F211E)" stroke="var(--accent,#6A9CC4)" stroke-width="1.5"/>
<rect x="254.0" y="306.0" width="20.0" height="14.0" fill="var(--surface,#1F211E)" stroke="var(--accent,#6A9CC4)" stroke-width="1.5"/>
<rect x="286.0" y="306.0" width="20.0" height="14.0" fill="var(--surface,#1F211E)" stroke="var(--accent,#6A9CC4)" stroke-width="1.5"/>
<rect x="318.0" y="306.0" width="20.0" height="14.0" fill="var(--surface,#1F211E)" stroke="var(--accent,#6A9CC4)" stroke-width="1.5"/>
<rect x="350.0" y="306.0" width="20.0" height="14.0" fill="var(--surface,#1F211E)" stroke="var(--accent,#6A9CC4)" stroke-width="1.5"/>
<rect x="382.0" y="306.0" width="20.0" height="14.0" fill="var(--surface,#1F211E)" stroke="var(--accent,#6A9CC4)" stroke-width="1.5"/>
<text x="126.0" y="300.0" font-family="'Space Mono',monospace" font-size="9" fill="var(--accent,#6A9CC4)" letter-spacing="0.08em">ZIDAKA NICHES</text>
<line x1="132.0" y1="202.0" x2="132.0" y2="242.0" stroke="var(--mut,#8A8880)" stroke-width="0.75"/>
<line x1="128.0" y1="202.0" x2="136.0" y2="202.0" stroke="var(--mut,#8A8880)" stroke-width="0.75"/>
<line x1="128.0" y1="242.0" x2="136.0" y2="242.0" stroke="var(--mut,#8A8880)" stroke-width="0.75"/>
<text x="142.0" y="218.0" font-family="'Space Mono',monospace" font-size="10" fill="var(--ink,#ECEAE3)" letter-spacing="0.04em">ABOUT 3 M</text>
<text x="142.0" y="231.0" font-family="'Space Mono',monospace" font-size="9" fill="var(--mut,#8A8880)" letter-spacing="0.08em">THE SPAN OF A MANGROVE POLE</text>
<text x="424.0" y="52.0" font-family="'Space Mono',monospace" font-size="9" fill="var(--mut,#8A8880)" letter-spacing="0.08em">DEPTH</text>
<text x="498.0" y="52.0" font-family="'Space Mono',monospace" font-size="9" fill="var(--mut,#8A8880)" letter-spacing="0.08em">PUBLIC TO PRIVATE</text>
<line x1="58.0" y1="348.0" x2="612.0" y2="348.0" stroke="var(--line,#32352F)" stroke-width="0.75"/>
<text x="58.0" y="366.0" font-family="'Space Mono',monospace" font-size="9" fill="var(--ink,#ECEAE3)" letter-spacing="0.08em">THE SAME SEQUENCE IN SECTION · STEPPING HIGHER, GETTING DARKER</text>
<line x1="110.0" y1="420.0" x2="110.0" y2="416.0" stroke="var(--ink,#ECEAE3)" stroke-width="1.5"/>
<line x1="110.0" y1="416.0" x2="186.0" y2="416.0" stroke="var(--ink,#ECEAE3)" stroke-width="1.5"/>
<line x1="110.0" y1="398.0" x2="186.0" y2="398.0" stroke="var(--dim,#B8B5AC)" stroke-width="1.5"/>
<text x="148.0" y="435.0" font-family="'Space Mono',monospace" font-size="9" fill="var(--mut,#8A8880)" letter-spacing="0.08em" text-anchor="middle">DAKA</text>
<line x1="186.0" y1="416.0" x2="186.0" y2="412.0" stroke="var(--ink,#ECEAE3)" stroke-width="1.5"/>
<line x1="186.0" y1="412.0" x2="334.0" y2="412.0" stroke="var(--ink,#ECEAE3)" stroke-width="1.5"/>
<text x="260.0" y="390.0" font-family="'Space Mono',monospace" font-size="9" fill="var(--accent,#6A9CC4)" letter-spacing="0.08em" text-anchor="middle">OPEN TO THE SKY</text>
<text x="260.0" y="435.0" font-family="'Space Mono',monospace" font-size="9" fill="var(--mut,#8A8880)" letter-spacing="0.08em" text-anchor="middle">KIWANDA</text>
<line x1="334.0" y1="412.0" x2="334.0" y2="407.0" stroke="var(--ink,#ECEAE3)" stroke-width="1.5"/>
<line x1="334.0" y1="407.0" x2="403.0" y2="407.0" stroke="var(--ink,#ECEAE3)" stroke-width="1.5"/>
<line x1="334.0" y1="389.0" x2="403.0" y2="389.0" stroke="var(--dim,#B8B5AC)" stroke-width="1.5"/>
<text x="368.5" y="435.0" font-family="'Space Mono',monospace" font-size="9" fill="var(--mut,#8A8880)" letter-spacing="0.08em" text-anchor="middle">TINI</text>
<line x1="403.0" y1="407.0" x2="403.0" y2="402.0" stroke="var(--ink,#ECEAE3)" stroke-width="1.5"/>
<line x1="403.0" y1="402.0" x2="472.0" y2="402.0" stroke="var(--ink,#ECEAE3)" stroke-width="1.5"/>
<line x1="403.0" y1="384.0" x2="472.0" y2="384.0" stroke="var(--dim,#B8B5AC)" stroke-width="1.5"/>
<text x="437.5" y="435.0" font-family="'Space Mono',monospace" font-size="9" fill="var(--mut,#8A8880)" letter-spacing="0.08em" text-anchor="middle">YUU</text>
<line x1="472.0" y1="402.0" x2="472.0" y2="396.0" stroke="var(--ink,#ECEAE3)" stroke-width="1.5"/>
<line x1="472.0" y1="396.0" x2="561.0" y2="396.0" stroke="var(--ink,#ECEAE3)" stroke-width="1.5"/>
<line x1="472.0" y1="378.0" x2="561.0" y2="378.0" stroke="var(--dim,#B8B5AC)" stroke-width="1.5"/>
<text x="516.5" y="435.0" font-family="'Space Mono',monospace" font-size="9" fill="var(--mut,#8A8880)" letter-spacing="0.08em" text-anchor="middle">NDANI</text>
<line x1="80.0" y1="420.0" x2="110.0" y2="420.0" stroke="var(--mut,#8A8880)" stroke-width="0.75"/>
<text x="76.0" y="423.0" font-family="'Space Mono',monospace" font-size="9" fill="var(--mut,#8A8880)" letter-spacing="0.08em" text-anchor="end">STREET</text>
<text x="58.0" y="34.0" font-family="'Space Mono',monospace" font-size="9" fill="var(--ink,#ECEAE3)" letter-spacing="0.08em">A LAMU HOUSE IN PLAN · THE INTIMACY GRADIENT</text>
<text x="58.0" y="456.0" font-family="'Space Mono',monospace" font-size="9" fill="var(--mut,#8A8880)" letter-spacing="0.08em">ARCHNET 6076 · PLOTS AVERAGING 250 M² · UNCOURSED CORAL AND LIME · THE DAKA IS 3 M HIGH</text>
</svg>
